<?xml version="1.0" standalone="no"?><!DOCTYPE svg PUBLIC "-//W3C//DTD SVG 1.1//EN" "http://www.w3.org/Graphics/SVG/1.1/DTD/svg11.dtd"><svg t="1721726822767" class="icon" viewBox="0 0 1024 1024" version="1.1" xmlns="http://www.w3.org/2000/svg" p-id="1716" id="mx_n_1721726822768" xmlns:xlink="http://www.w3.org/1999/xlink" width="200" height="200"><path d="M853.333333 85.333333H170.666667c-28.16 0-51.2 23.04-51.2 51.2v750.933334c0 28.16 23.04 51.2 51.2 51.2h682.666666c28.16 0 51.2-23.04 51.2-51.2V136.533333c0-28.16-23.04-51.2-51.2-51.2z m-397.226666 512.426667l-132.693334 132.693333c-13.226667 13.226667-34.986667 13.226667-48.213333 0l-60.16-60.16c-13.226667-13.226667-13.226667-34.986667 0-48.213333 13.226667-13.226667 34.986667-13.226667 48.213333 0l36.266667 36.266667 108.8-108.8c13.226667-13.226667 34.986667-13.226667 48.213333 0 12.8 13.226667 12.8 34.986667-0.426666 48.213333z m0-256l-132.693334 132.693333c-13.226667 13.226667-34.986667 13.226667-48.213333 0L214.613333 414.293333c-13.226667-13.226667-13.226667-34.986667 0-48.213333 13.226667-13.226667 34.986667-13.226667 48.213334 0l36.266666 36.266667 108.8-108.8c13.226667-13.226667 34.986667-13.226667 48.213334 0 13.226667 13.226667 13.226667 34.986667 0 48.213333z m328.96 356.266667h-204.8c-18.773333 0-34.133333-15.36-34.133334-34.133334s15.36-34.133333 34.133334-34.133333h204.8c18.773333 0 34.133333 15.36 34.133333 34.133333s-15.36 34.133333-34.133333 34.133334z m0-256h-204.8c-18.773333 0-34.133333-15.36-34.133334-34.133334s15.36-34.133333 34.133334-34.133333h204.8c18.773333 0 34.133333 15.36 34.133333 34.133333s-15.36 34.133333-34.133333 34.133334z" fill="#674fb9" p-id="1717"></path></svg>